<mxfile host="app.diagrams.net" modified="2023-05-09T22:07:37.751Z" agent="Mozilla/5.0 (Macintosh; Intel Mac OS X 10_15_7) AppleWebKit/605.1.15 (KHTML, like Gecko) Version/16.3 Safari/605.1.15" version="21.2.2" etag="NHKxiWWV188sNbw_MR3i" type="github">
  <diagram name="PÃ¡gina-1" id="jXd49dh66-sQYe_IOImI">
    <mxGraphModel>
      <root>
        <mxCell id="0" />
        <mxCell id="1" parent="0" />
      </root>
    </mxGraphModel>
  </diagram>
</mxfile>
